<svg width="24" height="24" viewBox="0 0 24 24" fill="none" xmlns="http://www.w3.org/2000/svg">
<path d="M16.9313 19.7812C16.9612 19.9773 16.9132 20.1774 16.7976 20.3386C16.682 20.4997 16.5079 20.6093 16.3125 20.6437H16.1906C16.0132 20.642 15.8421 20.5783 15.7068 20.4635C15.5715 20.3488 15.4807 20.1903 15.45 20.0156L15.0844 17.8125C15.0508 17.6161 15.0966 17.4144 15.2118 17.2517C15.327 17.0891 15.502 16.9789 15.6984 16.9453C15.8949 16.9117 16.0966 16.9576 16.2592 17.0727C16.4218 17.1879 16.5321 17.3629 16.5656 17.5594L16.9313 19.7812ZM12 17.25C11.8011 17.25 11.6103 17.329 11.4697 17.4697C11.329 17.6103 11.25 17.8011 11.25 18V21C11.25 21.1989 11.329 21.3897 11.4697 21.5303C11.6103 21.671 11.8011 21.75 12 21.75C12.1989 21.75 12.3897 21.671 12.5303 21.5303C12.671 21.3897 12.75 21.1989 12.75 21V18C12.75 17.8011 12.671 17.6103 12.5303 17.4697C12.3897 17.329 12.1989 17.25 12 17.25ZM8.29688 16.9594C8.20014 16.9419 8.10091 16.9439 8.00494 16.9652C7.90898 16.9864 7.81822 17.0266 7.73794 17.0833C7.65766 17.14 7.58947 17.2122 7.53735 17.2955C7.48524 17.3789 7.45023 17.4717 7.43438 17.5687L7.06875 19.7812C7.03879 19.9773 7.08676 20.1774 7.2024 20.3386C7.31803 20.4997 7.49214 20.6093 7.6875 20.6437H7.80938C7.98675 20.642 8.15793 20.5783 8.29322 20.4635C8.4285 20.3488 8.51935 20.1903 8.55 20.0156L8.91562 17.8125C8.9454 17.6175 8.89716 17.4186 8.78135 17.2589C8.66554 17.0993 8.49148 16.9916 8.29688 16.9594ZM23.25 10.5C23.25 12.0187 21.9937 13.3969 19.7156 14.3719C17.6438 15.2625 14.9062 15.75 12 15.75C9.09375 15.75 6.35625 15.2625 4.28438 14.3719C2.00625 13.3969 0.75 12.0187 0.75 10.5C0.75 9.71249 1.09688 8.54999 2.7375 7.45312C3.79688 6.74062 5.25938 6.15937 6.975 5.77499C7.45227 5.02037 8.09292 4.38256 8.84967 3.90867C9.60642 3.43477 10.4599 3.13689 11.3472 3.037C12.2345 2.93711 13.1329 3.03778 13.9761 3.33156C14.8192 3.62534 15.5857 4.10474 16.2188 4.73437C16.5414 5.05146 16.8275 5.40365 17.0719 5.78437C20.9438 6.66562 23.25 8.40937 23.25 10.5ZM7.5 9.07499V9.36562C7.49812 9.53327 7.55391 9.69647 7.65802 9.82789C7.76213 9.95931 7.90824 10.051 8.07187 10.0875C9.3618 10.3709 10.6793 10.5092 12 10.5C13.3207 10.5092 14.6382 10.3709 15.9281 10.0875C16.0918 10.051 16.2379 9.95931 16.342 9.82789C16.4461 9.69647 16.5019 9.53327 16.5 9.36562V8.99999C16.5018 8.23165 16.3048 7.47591 15.9281 6.80624C15.7168 6.43975 15.4583 6.10251 15.1594 5.80312C14.7382 5.38134 14.2364 5.04862 13.684 4.82475C13.1316 4.60088 12.5397 4.49043 11.9438 4.49999C9.4875 4.52812 7.5 6.58124 7.5 9.07499Z" fill="#C6D101"/>
</svg>
