<svg width="128" height="19" viewBox="0 0 128 19" fill="none" xmlns="http://www.w3.org/2000/svg">
<path fill-rule="evenodd" clip-rule="evenodd" d="M42 4C40.8954 4 40 3.10457 40 2V2C40 0.89543 39.1046 0 38 0H2C0.895431 0 0 0.895431 0 2V17C0 18.1046 0.895431 19 2 19L38 19C39.1046 19 40 18.1046 40 17V16C40 14.8954 40.8954 14 42 14V14C43.1046 14 44 13.1046 44 12V6C44 4.89543 43.1046 4 42 4V4Z" fill="#4D4D4D"/>
<rect x="2" y="2" width="36" height="15" rx="3" fill="#191919"/>
<path d="M31 2C32.6569 2 34 3.34315 34 5L34 14C34 15.6569 32.6569 17 31 17L5 17C3.34315 17 2 15.6569 2 14L2 5C2 3.34314 3.34315 2 5 2L31 2Z" fill="#F8ED33"/>
<path d="M54.6687 15.1392C54.1815 15.1359 53.7058 15.0514 53.2418 14.8857C52.7778 14.7166 52.3602 14.4432 51.989 14.0653C51.6178 13.6842 51.3228 13.1787 51.104 12.549C50.8853 11.916 50.7776 11.1321 50.7809 10.1974C50.7809 9.32576 50.8737 8.54853 51.0593 7.86577C51.2449 7.183 51.5117 6.6063 51.8597 6.13565C52.2077 5.66169 52.627 5.30043 53.1175 5.05185C53.6114 4.80327 54.1632 4.67898 54.7731 4.67898C55.4128 4.67898 55.9795 4.80492 56.4734 5.05682C56.9705 5.30871 57.3716 5.65341 57.6765 6.09091C57.9814 6.52509 58.1703 7.01562 58.2433 7.5625H56.4286C56.3358 7.1714 56.1452 6.85985 55.8569 6.62784C55.5719 6.39252 55.2106 6.27486 54.7731 6.27486C54.0671 6.27486 53.5236 6.58144 53.1424 7.1946C52.7646 7.80776 52.574 8.64962 52.5707 9.72017H52.6403C52.8027 9.4285 53.0131 9.17827 53.2717 8.96946C53.5302 8.76065 53.8219 8.59991 54.1467 8.48722C54.4748 8.37121 54.8211 8.31321 55.1857 8.31321C55.7823 8.31321 56.3176 8.45573 56.7915 8.74077C57.2688 9.0258 57.6467 9.41856 57.9251 9.91903C58.2035 10.4162 58.341 10.9863 58.3377 11.6293C58.341 12.2988 58.1886 12.9003 57.8803 13.4339C57.5721 13.9643 57.1429 14.3819 56.5927 14.6868C56.0425 14.9917 55.4012 15.1425 54.6687 15.1392ZM54.6587 13.6477C55.02 13.6477 55.3432 13.5599 55.6282 13.3842C55.9132 13.2086 56.1386 12.9716 56.3043 12.6733C56.4701 12.375 56.5513 12.0402 56.5479 11.669C56.5513 11.3045 56.4717 10.9747 56.3093 10.6797C56.1502 10.3847 55.9298 10.151 55.6481 9.97869C55.3664 9.80634 55.0449 9.72017 54.6836 9.72017C54.4151 9.72017 54.1649 9.77154 53.9329 9.87429C53.7009 9.97704 53.4987 10.1196 53.3263 10.3018C53.154 10.4808 53.0181 10.6896 52.9187 10.9283C52.8226 11.1636 52.7728 11.4155 52.7695 11.6839C52.7728 12.0386 52.8557 12.3651 53.0181 12.6634C53.1805 12.9616 53.4042 13.2003 53.6893 13.3793C53.9743 13.5582 54.2975 13.6477 54.6587 13.6477ZM63.5579 15.1392C62.895 15.1392 62.3017 15.0149 61.7781 14.7663C61.2544 14.5144 60.8384 14.1697 60.5302 13.7322C60.2253 13.2947 60.0629 12.7943 60.043 12.2308H61.8327C61.8659 12.6484 62.0465 12.9898 62.3746 13.255C62.7028 13.5168 63.0972 13.6477 63.5579 13.6477C63.9192 13.6477 64.2406 13.5649 64.5224 13.3991C64.8041 13.2334 65.0262 13.0031 65.1886 12.7081C65.351 12.4131 65.4305 12.0767 65.4272 11.6989C65.4305 11.3144 65.3493 10.973 65.1836 10.6747C65.0179 10.3764 64.7908 10.1428 64.5025 9.97372C64.2141 9.80137 63.8827 9.7152 63.5082 9.7152C63.2032 9.71188 62.9033 9.76823 62.6083 9.88423C62.3133 10.0002 62.0797 10.1527 61.9073 10.3416L60.2418 10.0682L60.7738 4.81818H66.68V6.35938H62.3001L62.0067 9.05895H62.0664C62.2553 8.83688 62.5221 8.65294 62.8668 8.5071C63.2115 8.35795 63.5894 8.28338 64.0004 8.28338C64.6168 8.28338 65.167 8.42921 65.6509 8.72088C66.1348 9.00923 66.516 9.40696 66.7944 9.91406C67.0728 10.4212 67.212 11.0012 67.212 11.6541C67.212 12.3269 67.0562 12.9268 66.7447 13.4538C66.4364 13.9775 66.0072 14.3902 65.457 14.6918C64.9102 14.9901 64.2771 15.1392 63.5579 15.1392ZM72.641 15.1939C71.8223 15.1939 71.1197 14.9867 70.533 14.5724C69.9497 14.1548 69.5006 13.5533 69.1857 12.7678C68.8742 11.9789 68.7184 11.0294 68.7184 9.91903C68.7217 8.80871 68.8791 7.86411 69.1907 7.08523C69.5056 6.30303 69.9547 5.70644 70.538 5.29545C71.1246 4.88447 71.8256 4.67898 72.641 4.67898C73.4563 4.67898 74.1573 4.88447 74.744 5.29545C75.3306 5.70644 75.7797 6.30303 76.0913 7.08523C76.4061 7.86742 76.5636 8.81203 76.5636 9.91903C76.5636 11.0327 76.4061 11.9839 76.0913 12.7727C75.7797 13.5582 75.3306 14.1581 74.744 14.5724C74.1606 14.9867 73.4596 15.1939 72.641 15.1939ZM72.641 13.6378C73.2773 13.6378 73.7795 13.3246 74.1474 12.6982C74.5186 12.0684 74.7042 11.142 74.7042 9.91903C74.7042 9.11032 74.6197 8.43087 74.4506 7.88068C74.2816 7.33049 74.043 6.91619 73.7347 6.63778C73.4265 6.35606 73.0619 6.2152 72.641 6.2152C72.0079 6.2152 71.5075 6.53007 71.1396 7.1598C70.7717 7.78622 70.5861 8.70597 70.5827 9.91903C70.5794 10.7311 70.6606 11.4138 70.8263 11.9673C70.9954 12.5208 71.234 12.9384 71.5423 13.2202C71.8505 13.4986 72.2167 13.6378 72.641 13.6378ZM81.9789 15.1939C81.1602 15.1939 80.4576 14.9867 79.8709 14.5724C79.2876 14.1548 78.8385 13.5533 78.5236 12.7678C78.2121 11.9789 78.0563 11.0294 78.0563 9.91903C78.0596 8.80871 78.217 7.86411 78.5286 7.08523C78.8435 6.30303 79.2926 5.70644 79.8759 5.29545C80.4625 4.88447 81.1635 4.67898 81.9789 4.67898C82.7942 4.67898 83.4952 4.88447 84.0819 5.29545C84.6685 5.70644 85.1176 6.30303 85.4292 7.08523C85.744 7.86742 85.9015 8.81203 85.9015 9.91903C85.9015 11.0327 85.744 11.9839 85.4292 12.7727C85.1176 13.5582 84.6685 14.1581 84.0819 14.5724C83.4985 14.9867 82.7975 15.1939 81.9789 15.1939ZM81.9789 13.6378C82.6152 13.6378 83.1174 13.3246 83.4853 12.6982C83.8565 12.0684 84.0421 11.142 84.0421 9.91903C84.0421 9.11032 83.9576 8.43087 83.7885 7.88068C83.6195 7.33049 83.3809 6.91619 83.0726 6.63778C82.7644 6.35606 82.3998 6.2152 81.9789 6.2152C81.3458 6.2152 80.8453 6.53007 80.4775 7.1598C80.1096 7.78622 79.9239 8.70597 79.9206 9.91903C79.9173 10.7311 79.9985 11.4138 80.1642 11.9673C80.3333 12.5208 80.5719 12.9384 80.8801 13.2202C81.1884 13.4986 81.5546 13.6378 81.9789 13.6378ZM91.7294 4.34091L88.4482 16.5312H86.8722L90.1534 4.34091H91.7294ZM93.2308 15L97.5611 6.42898V6.35938H92.5348V4.81818H99.4702V6.39418L95.1449 15H93.2308ZM104.619 15.1939C103.801 15.1939 103.098 14.9867 102.512 14.5724C101.928 14.1548 101.479 13.5533 101.164 12.7678C100.853 11.9789 100.697 11.0294 100.697 9.91903C100.7 8.80871 100.858 7.86411 101.169 7.08523C101.484 6.30303 101.933 5.70644 102.517 5.29545C103.103 4.88447 103.804 4.67898 104.619 4.67898C105.435 4.67898 106.136 4.88447 106.722 5.29545C107.309 5.70644 107.758 6.30303 108.07 7.08523C108.385 7.86742 108.542 8.81203 108.542 9.91903C108.542 11.0327 108.385 11.9839 108.07 12.7727C107.758 13.5582 107.309 14.1581 106.722 14.5724C106.139 14.9867 105.438 15.1939 104.619 15.1939ZM104.619 13.6378C105.256 13.6378 105.758 13.3246 106.126 12.6982C106.497 12.0684 106.683 11.142 106.683 9.91903C106.683 9.11032 106.598 8.43087 106.429 7.88068C106.26 7.33049 106.021 6.91619 105.713 6.63778C105.405 6.35606 105.04 6.2152 104.619 6.2152C103.986 6.2152 103.486 6.53007 103.118 7.1598C102.75 7.78622 102.565 8.70597 102.561 9.91903C102.558 10.7311 102.639 11.4138 102.805 11.9673C102.974 12.5208 103.213 12.9384 103.521 13.2202C103.829 13.4986 104.195 13.6378 104.619 13.6378ZM113.957 15.1939C113.139 15.1939 112.436 14.9867 111.849 14.5724C111.266 14.1548 110.817 13.5533 110.502 12.7678C110.191 11.9789 110.035 11.0294 110.035 9.91903C110.038 8.80871 110.196 7.86411 110.507 7.08523C110.822 6.30303 111.271 5.70644 111.854 5.29545C112.441 4.88447 113.142 4.67898 113.957 4.67898C114.773 4.67898 115.474 4.88447 116.06 5.29545C116.647 5.70644 117.096 6.30303 117.408 7.08523C117.723 7.86742 117.88 8.81203 117.88 9.91903C117.88 11.0327 117.723 11.9839 117.408 12.7727C117.096 13.5582 116.647 14.1581 116.06 14.5724C115.477 14.9867 114.776 15.1939 113.957 15.1939ZM113.957 13.6378C114.594 13.6378 115.096 13.3246 115.464 12.6982C115.835 12.0684 116.021 11.142 116.021 9.91903C116.021 9.11032 115.936 8.43087 115.767 7.88068C115.598 7.33049 115.359 6.91619 115.051 6.63778C114.743 6.35606 114.378 6.2152 113.957 6.2152C113.324 6.2152 112.824 6.53007 112.456 7.1598C112.088 7.78622 111.902 8.70597 111.899 9.91903C111.896 10.7311 111.977 11.4138 112.143 11.9673C112.312 12.5208 112.55 12.9384 112.859 13.2202C113.167 13.4986 113.533 13.6378 113.957 13.6378ZM123.295 15.1939C122.477 15.1939 121.774 14.9867 121.187 14.5724C120.604 14.1548 120.155 13.5533 119.84 12.7678C119.528 11.9789 119.373 11.0294 119.373 9.91903C119.376 8.80871 119.533 7.86411 119.845 7.08523C120.16 6.30303 120.609 5.70644 121.192 5.29545C121.779 4.88447 122.48 4.67898 123.295 4.67898C124.111 4.67898 124.812 4.88447 125.398 5.29545C125.985 5.70644 126.434 6.30303 126.746 7.08523C127.06 7.86742 127.218 8.81203 127.218 9.91903C127.218 11.0327 127.06 11.9839 126.746 12.7727C126.434 13.5582 125.985 14.1581 125.398 14.5724C124.815 14.9867 124.114 15.1939 123.295 15.1939ZM123.295 13.6378C123.932 13.6378 124.434 13.3246 124.802 12.6982C125.173 12.0684 125.358 11.142 125.358 9.91903C125.358 9.11032 125.274 8.43087 125.105 7.88068C124.936 7.33049 124.697 6.91619 124.389 6.63778C124.081 6.35606 123.716 6.2152 123.295 6.2152C122.662 6.2152 122.162 6.53007 121.794 7.1598C121.426 7.78622 121.24 8.70597 121.237 9.91903C121.234 10.7311 121.315 11.4138 121.481 11.9673C121.65 12.5208 121.888 12.9384 122.197 13.2202C122.505 13.4986 122.871 13.6378 123.295 13.6378Z" fill="white"/>
</svg>
