<svg width="44" height="19" viewBox="0 0 44 19" fill="none" xmlns="http://www.w3.org/2000/svg">
<path fill-rule="evenodd" clip-rule="evenodd" d="M42 4C40.8954 4 40 3.10457 40 2V2C40 0.89543 39.1046 0 38 0H2C0.895431 0 0 0.895431 0 2V17C0 18.1046 0.895431 19 2 19L38 19C39.1046 19 40 18.1046 40 17V16C40 14.8954 40.8954 14 42 14V14C43.1046 14 44 13.1046 44 12V6C44 4.89543 43.1046 4 42 4V4Z" fill="#4D4D4D"/>
<rect x="2" y="2" width="36" height="15" rx="3" fill="#191919"/>
<path d="M31 2C32.6569 2 34 3.34315 34 5L34 14C34 15.6569 32.6569 17 31 17L5 17C3.34315 17 2 15.6569 2 14L2 5C2 3.34314 3.34315 2 5 2L31 2Z" fill="#F8ED33"/>
</svg>
