<svg width="44" height="20" viewBox="0 0 44 20" fill="none" xmlns="http://www.w3.org/2000/svg">
<path fill-rule="evenodd" clip-rule="evenodd" d="M42 4.5C40.8954 4.5 40 3.60457 40 2.5C40 1.39543 39.1046 0.5 38 0.5H2C0.895431 0.5 0 1.39543 0 2.5V17.5C0 18.6046 0.895431 19.5 2 19.5L38 19.5C39.1046 19.5 40 18.6046 40 17.5V16.5C40 15.3954 40.8954 14.5 42 14.5C43.1046 14.5 44 13.6046 44 12.5V6.5C44 5.39543 43.1046 4.5 42 4.5Z" fill="#4D4D4D"/>
<rect x="2" y="2.5" width="36" height="15" rx="3" fill="#191919"/>
<path d="M31 2.5C32.6569 2.5 34 3.84315 34 5.5L34 14.5C34 16.1569 32.6569 17.5 31 17.5L5 17.5C3.34314 17.5 2 16.1569 2 14.5L2 5.5C2 3.84314 3.34315 2.5 5 2.5L31 2.5Z" fill="#F8ED33"/>
</svg>
