<svg width="33" height="32" viewBox="0 0 33 32" fill="none" xmlns="http://www.w3.org/2000/svg">
<path d="M27.75 12.9625L17.75 3.87495C17.3814 3.53765 16.8998 3.35059 16.4 3.35059C15.9003 3.35059 15.4187 3.53765 15.05 3.87495L5.05005 12.9625C4.8453 13.1498 4.68178 13.3776 4.56987 13.6316C4.45797 13.8855 4.40014 14.16 4.40005 14.4375V25.95C4.39192 26.4542 4.56993 26.9437 4.90005 27.325C5.08741 27.538 5.31821 27.7085 5.57694 27.8249C5.83567 27.9413 6.11633 28.001 6.40005 28H12.4C12.6653 28 12.9196 27.8946 13.1072 27.7071C13.2947 27.5195 13.4 27.2652 13.4 27V21C13.4 20.7347 13.5054 20.4804 13.6929 20.2928C13.8805 20.1053 14.1348 20 14.4 20H18.4C18.6653 20 18.9196 20.1053 19.1072 20.2928C19.2947 20.4804 19.4 20.7347 19.4 21V27C19.4 27.2652 19.5054 27.5195 19.6929 27.7071C19.8805 27.8946 20.1348 28 20.4 28H26.4C26.7318 28.0029 27.0587 27.9211 27.35 27.7625C27.667 27.5898 27.9318 27.3351 28.1165 27.025C28.3012 26.715 28.3992 26.3609 28.4 26V14.4375C28.4 14.16 28.3421 13.8855 28.2302 13.6316C28.1183 13.3776 27.9548 13.1498 27.75 12.9625V12.9625Z" fill="#0C0C0C"/>
</svg>
