<svg width="358" height="377" viewBox="0 0 358 377" fill="none" xmlns="http://www.w3.org/2000/svg">
<path fill-rule="evenodd" clip-rule="evenodd" d="M136.853 210C136.853 191.775 122.201 177 104.127 177V177C86.0535 177 71.4017 162.225 71.4017 144V121C71.4017 101.118 55.4179 85 35.7008 85V85C15.9838 85 3.27826e-06 68.8822 3.27826e-06 49V38.0241C3.27826e-06 17.024 16.8825 0 37.7081 0V0C58.5338 0 75.4163 17.024 75.4163 38.0241V54.5165C75.4163 62.6024 75.4163 66.6453 75.9212 70.0318C78.8865 89.9209 94.3696 105.534 114.093 108.524C117.452 109.033 121.461 109.033 129.48 109.033H174.003C182.021 109.033 186.031 109.033 189.389 108.524C209.113 105.534 224.596 89.9209 227.561 70.0318C228.066 66.6453 228.066 62.6024 228.066 54.5165V54.5165C228.066 46.4306 228.066 42.3877 228.571 39.0012C231.536 19.1121 247.019 3.49931 266.743 0.509125C270.101 -7.33137e-06 274.111 0 282.129 0H308.992C312.313 0 313.973 -3.53903e-06 315.376 0.0875244C338.256 1.5158 356.497 19.9094 357.913 42.9816C358 44.3956 358 46.0699 358 49.4185V49.4185C358 52.7671 358 54.4413 357.913 55.8553C356.497 78.9275 338.256 97.3211 315.376 98.7494C313.973 98.8369 312.313 98.8369 308.992 98.8369H286.7C277.811 98.8369 273.366 98.8369 269.652 99.4621C250.513 102.684 235.515 117.807 232.32 137.106C231.7 140.852 231.7 145.333 231.7 154.297V154.297C231.7 163.26 231.7 167.742 232.32 171.487C235.515 190.787 250.513 205.91 269.652 209.132C273.366 209.757 277.811 209.757 286.7 209.757H305.816C312.087 209.757 315.223 209.757 317.86 210.069C338.759 212.54 355.24 229.159 357.691 250.233C358 252.892 358 256.054 358 262.378V262.378C358 268.703 358 271.865 357.691 274.524C355.24 295.598 338.759 312.217 317.86 314.688C315.223 315 312.087 315 305.816 315H205.28C183.849 315 173.134 315 164.696 311.428C153.727 306.783 145.002 297.985 140.396 286.924C136.853 278.415 136.853 267.61 136.853 246V210Z" fill="url(#paint0_linear_245_2789)"/>
<path d="M44.6213 30.9741C45.5747 31.6864 46.1362 32.8067 46.1362 33.9968V33.9968C46.1362 37.1026 42.5934 38.8783 40.1052 37.0195L25.5861 26.1732C24.6327 25.461 24.0712 24.3406 24.0712 23.1505V23.1505C24.0712 20.0447 27.6141 18.2691 30.1022 20.1279L44.6213 30.9741Z" fill="#191919"/>
<path d="M44.6213 44.4049C45.5747 45.1172 46.1362 46.2375 46.1362 47.4276V47.4276C46.1362 50.5334 42.5934 52.309 40.1052 50.4503L25.5861 39.604C24.6327 38.8918 24.0712 37.7714 24.0712 36.5813V36.5813C24.0712 33.4755 27.6141 31.6999 30.1022 33.5587L44.6213 44.4049Z" fill="#191919"/>
<path d="M44.6213 57.8358C45.5747 58.5481 46.1362 59.6684 46.1362 60.8585V60.8585C46.1362 63.9643 42.5934 65.7399 40.1052 63.8812L25.5861 53.0349C24.6327 52.3227 24.0712 51.2023 24.0712 50.0122V50.0122C24.0712 46.9064 27.6141 45.1308 30.1022 46.9896L44.6213 57.8358Z" fill="#191919"/>
<path d="M32.0648 62.2397C34.7252 64.3447 34.5161 68.4447 31.6553 70.2681V70.2681C28.3715 72.361 24.0711 70.0023 24.0711 66.1082L24.0711 61.7113V61.7113C24.0711 59.3663 26.7776 58.0564 28.6167 59.5115L32.0648 62.2397Z" fill="#191919"/>
<path d="M32.6316 10.8257C30.2846 10.8257 29.2553 13.787 31.0963 15.2427L44.631 25.9446C45.2401 26.4262 46.1361 25.9924 46.1361 25.2159L-nan -nanL46.1361 25.2159L46.1361 16.0758C46.1361 13.1762 43.7855 10.8257 40.886 10.8257L32.6316 10.8257Z" fill="#191919"/>
<path d="M336.51 48.1028C336.51 66.0668 321.948 80.6295 303.984 80.6295C286.02 80.6295 271.457 66.0668 271.457 48.1028C271.457 30.1388 286.02 15.5762 303.984 15.5762C321.948 15.5762 336.51 30.1388 336.51 48.1028Z" fill="#191919"/>
<path d="M314.177 44.5853C316.62 45.996 316.62 49.5226 314.177 50.9333L301.852 58.0488C298.613 59.9188 294.983 56.3066 296.836 53.0584L298.824 49.5757C299.466 48.45 299.466 47.0686 298.824 45.9429L296.836 42.4602C294.983 39.212 298.613 35.5998 301.852 37.4698L314.177 44.5853Z" fill="white"/>
<defs>
<linearGradient id="paint0_linear_245_2789" x1="116.759" y1="-8.08582" x2="236.837" y2="288.275" gradientUnits="userSpaceOnUse">
<stop stop-color="#E1FF02"/>
<stop offset="0.98" stop-color="#6A7800"/>
</linearGradient>
</defs>
</svg>
