<svg width="12" height="13" viewBox="0 0 12 13" fill="none" xmlns="http://www.w3.org/2000/svg">
<path d="M6 1.625C5.03582 1.625 4.09329 1.91091 3.2916 2.44659C2.48991 2.98226 1.86507 3.74363 1.49609 4.63442C1.12711 5.52521 1.03057 6.50541 1.21867 7.45107C1.40678 8.39672 1.87108 9.26536 2.55286 9.94715C3.23464 10.6289 4.10328 11.0932 5.04894 11.2813C5.99459 11.4694 6.97479 11.3729 7.86558 11.0039C8.75637 10.6349 9.51774 10.0101 10.0534 9.2084C10.5891 8.40671 10.875 7.46418 10.875 6.5C10.8725 5.20783 10.3581 3.96929 9.44441 3.05559C8.53071 2.14189 7.29217 1.62748 6 1.625V1.625ZM5.90625 3.875C6.0175 3.875 6.12626 3.90799 6.21876 3.9698C6.31126 4.03161 6.38336 4.11946 6.42593 4.22224C6.46851 4.32502 6.47965 4.43812 6.45794 4.54724C6.43624 4.65635 6.38267 4.75658 6.304 4.83525C6.22533 4.91391 6.1251 4.96749 6.01599 4.98919C5.90688 5.0109 5.79378 4.99976 5.69099 4.95718C5.58821 4.91461 5.50036 4.84251 5.43855 4.75001C5.37674 4.65751 5.34375 4.54875 5.34375 4.4375C5.34375 4.28832 5.40302 4.14524 5.5085 4.03975C5.61399 3.93426 5.75707 3.875 5.90625 3.875ZM6.375 9.125H6C5.90055 9.125 5.80516 9.08549 5.73484 9.01517C5.66451 8.94484 5.625 8.84946 5.625 8.75V6.5C5.52555 6.5 5.43016 6.46049 5.35984 6.39016C5.28951 6.31984 5.25 6.22446 5.25 6.125C5.25 6.02554 5.28951 5.93016 5.35984 5.85984C5.43016 5.78951 5.52555 5.75 5.625 5.75H6C6.09946 5.75 6.19484 5.78951 6.26517 5.85984C6.33549 5.93016 6.375 6.02554 6.375 6.125V8.375C6.47446 8.375 6.56984 8.41451 6.64017 8.48483C6.71049 8.55516 6.75 8.65054 6.75 8.75C6.75 8.84946 6.71049 8.94484 6.64017 9.01517C6.56984 9.08549 6.47446 9.125 6.375 9.125Z" fill="#B2B2B2"/>
</svg>
