<svg width="17" height="16" viewBox="0 0 17 16" fill="none" xmlns="http://www.w3.org/2000/svg">
<path d="M14.9936 13.25C14.0606 11.6428 12.5673 10.4366 10.7998 9.86251C11.647 9.35873 12.3053 8.59075 12.6737 7.67653C13.0421 6.76231 13.1001 5.75244 12.8389 4.80204C12.5777 3.85164 12.0116 3.0133 11.2277 2.4158C10.4438 1.8183 9.48546 1.49469 8.49982 1.49469C7.51417 1.49469 6.55579 1.8183 5.7719 2.4158C4.98801 3.0133 4.42197 3.85164 4.16074 4.80204C3.89951 5.75244 3.95754 6.76231 4.32592 7.67653C4.6943 8.59075 5.35264 9.35873 6.19982 9.86251C4.43238 10.4366 2.93902 11.6428 2.00607 13.25C1.96026 13.3253 1.93604 13.4118 1.93604 13.5C1.93604 13.5882 1.96026 13.6747 2.00607 13.75C2.0488 13.8266 2.11142 13.8903 2.18732 13.9343C2.26322 13.9783 2.34959 14.001 2.43732 14H14.5623C14.65 14.001 14.7364 13.9783 14.8123 13.9343C14.8882 13.8903 14.9508 13.8266 14.9936 13.75C15.0394 13.6747 15.0636 13.5882 15.0636 13.5C15.0636 13.4118 15.0394 13.3253 14.9936 13.25Z" fill="#C6D101"/>
</svg>
