<svg width="16" height="16" viewBox="0 0 16 16" fill="none" xmlns="http://www.w3.org/2000/svg">
<path d="M14.6751 9.39993L13.7438 8.16243C13.7501 8.04993 13.7438 7.93118 13.7438 7.84368L14.6751 6.59993C14.7214 6.5394 14.7528 6.46886 14.7669 6.39397C14.7811 6.31907 14.7774 6.24191 14.7563 6.16868C14.5988 5.59247 14.3699 5.03818 14.0751 4.51868C14.037 4.45269 13.9847 4.39601 13.922 4.35276C13.8593 4.30952 13.7878 4.28079 13.7126 4.26868L12.1813 4.04993L11.9501 3.81868L11.7313 2.28743C11.7191 2.21305 11.691 2.14218 11.6489 2.07963C11.6069 2.01708 11.5518 1.96431 11.4876 1.92493C10.9653 1.63113 10.4091 1.40235 9.8313 1.24368C9.75807 1.22257 9.68091 1.21893 9.60602 1.23304C9.53112 1.24715 9.46058 1.27862 9.40005 1.32493L8.16255 2.24993H7.83755L6.60005 1.32493C6.53952 1.27862 6.46898 1.24715 6.39409 1.23304C6.31919 1.21893 6.24203 1.22257 6.1688 1.24368C5.59259 1.40119 5.0383 1.63005 4.5188 1.92493C4.45281 1.96298 4.39613 2.01526 4.35289 2.07796C4.30964 2.14067 4.28092 2.21223 4.2688 2.28743L4.05005 3.81868L3.8188 4.04993L2.28755 4.26868C2.21235 4.28079 2.14079 4.30952 2.07808 4.35276C2.01538 4.39601 1.9631 4.45269 1.92505 4.51868C1.63017 5.03818 1.40132 5.59247 1.2438 6.16868C1.22269 6.24191 1.21905 6.31907 1.23316 6.39397C1.24727 6.46886 1.27874 6.5394 1.32505 6.59993L2.2563 7.83743V8.15618L1.32505 9.39993C1.27874 9.46046 1.24727 9.531 1.23316 9.6059C1.21905 9.68079 1.22269 9.75795 1.2438 9.83118C1.40132 10.4074 1.63017 10.9617 1.92505 11.4812C1.9631 11.5472 2.01538 11.6039 2.07808 11.6471C2.14079 11.6903 2.21235 11.7191 2.28755 11.7312L3.8188 11.9499L4.05005 12.1812L4.2688 13.7124C4.28092 13.7876 4.30964 13.8592 4.35289 13.9219C4.39613 13.9846 4.45281 14.0369 4.5188 14.0749C5.0383 14.3698 5.59259 14.5987 6.1688 14.7562C6.21146 14.7685 6.25564 14.7748 6.30005 14.7749C6.40846 14.7763 6.51417 14.7411 6.60005 14.6749L7.83755 13.7499H8.16255L9.40005 14.6749C9.46058 14.7212 9.53112 14.7527 9.60602 14.7668C9.68091 14.7809 9.75807 14.7773 9.8313 14.7562C10.4079 14.5998 10.9623 14.3709 11.4813 14.0749C11.5473 14.0369 11.604 13.9846 11.6472 13.9219C11.6905 13.8592 11.7192 13.7876 11.7313 13.7124L11.9501 12.1749C12.0251 12.0999 12.1126 12.0187 12.1751 11.9499L13.7126 11.7312C13.7878 11.7191 13.8593 11.6903 13.922 11.6471C13.9847 11.6039 14.037 11.5472 14.0751 11.4812C14.3699 10.9617 14.5988 10.4074 14.7563 9.83118C14.7774 9.75795 14.7811 9.68079 14.7669 9.6059C14.7528 9.531 14.7214 9.46046 14.6751 9.39993V9.39993ZM8.00005 10.7499C7.45615 10.7499 6.92447 10.5886 6.47224 10.2865C6.02 9.9843 5.66753 9.55481 5.45938 9.05231C5.25124 8.54981 5.19678 7.99688 5.30289 7.46343C5.409 6.92999 5.67092 6.43998 6.05551 6.05539C6.4401 5.67079 6.93011 5.40888 7.46355 5.30277C7.997 5.19666 8.54994 5.25112 9.05243 5.45926C9.55493 5.6674 9.98442 6.01988 10.2866 6.47211C10.5888 6.92435 10.7501 7.45603 10.7501 7.99993C10.7501 8.72928 10.4603 9.42875 9.9446 9.94448C9.42887 10.4602 8.7294 10.7499 8.00005 10.7499Z" fill="#B2B2B2"/>
</svg>
