<svg width="33" height="32" viewBox="0 0 33 32" fill="none" xmlns="http://www.w3.org/2000/svg">
<path d="M8.21076 11.8773C7.70375 11.3754 7.72003 10.5572 8.21076 10.0601L8.72077 9.54579L10.2551 8.01148C10.2868 7.98191 10.3207 7.94505 10.3579 7.92576C10.6041 7.7244 10.9163 7.62167 11.234 7.63751C11.5516 7.65335 11.852 7.78663 12.077 8.01148L14.1042 10.0387C14.2619 10.1981 14.7856 10.7244 14.936 10.8744C15.1601 11.0995 15.2932 11.3993 15.3098 11.7165C15.3264 12.0336 15.2254 12.3457 15.026 12.593C14.9767 12.6521 14.4924 13.1407 14.426 13.2059L13.406 14.2263L12.8917 14.7406C12.416 15.2386 11.5494 15.239 11.0741 14.7406L8.21076 11.8773ZM7.51646 9.54108C7.26061 9.23934 7.12743 8.8525 7.1433 8.45721C7.15918 8.06192 7.32295 7.68701 7.60217 7.40675C8.17218 6.83674 9.1322 6.80674 9.74079 7.31675C9.71079 7.34675 9.6765 7.37675 9.65079 7.40675L7.51646 9.54108ZM15.0303 13.8106C15.0925 13.7347 15.5832 13.268 15.6346 13.202L27.7394 25.3021C28.3527 25.8948 28.3536 26.9474 27.7394 27.5397C27.1463 28.153 26.095 28.1539 25.5022 27.5397L13.4017 15.4392C13.4403 15.4049 13.4703 15.3749 13.496 15.3449L15.0303 13.8106ZM5.32213 18.2511C5.99204 16.3676 6.92253 14.5873 8.08647 12.962L10.2894 15.1649C8.19447 17.6524 6.41929 20.433 5.01312 23.3563C4.94027 23.5106 4.79026 23.6006 4.6274 23.6006C4.38054 23.6041 4.16839 23.3786 4.20311 23.1249C4.38352 21.4621 4.75939 19.8262 5.32213 18.2511ZM23.5518 4.81385C20.6135 6.2243 17.8631 7.99666 15.3646 10.0897C14.9373 9.6568 13.6117 8.33506 13.1617 7.88676C16.1612 5.7472 19.6581 4.41052 23.3199 4.00383C23.7871 3.9434 23.9846 4.61456 23.5518 4.81385Z" fill="#4D4D4D"/>
</svg>
