<svg width="32" height="32" viewBox="0 0 32 32" fill="none" xmlns="http://www.w3.org/2000/svg">
<path d="M29 10.5V15.5C29 15.7652 28.8946 16.0196 28.7071 16.2071C28.5196 16.3946 28.2652 16.5 28 16.5C25.9111 16.5055 23.8521 16.0036 22 15.0375V19.5C22.0002 21.3073 21.4849 23.0772 20.5145 24.6019C19.5441 26.1267 18.1589 27.3429 16.5215 28.108C14.8841 28.8731 13.0624 29.1552 11.2703 28.9212C9.47817 28.6873 7.78997 27.947 6.40383 26.7872C5.01769 25.6275 3.99114 24.0964 3.44467 22.3736C2.8982 20.6509 2.85448 18.808 3.31865 17.0613C3.78282 15.3146 4.73561 13.7366 6.0652 12.5124C7.39478 11.2882 9.04599 10.4687 10.825 10.15C10.9677 10.1244 11.1143 10.1301 11.2546 10.1668C11.3949 10.2035 11.5256 10.2703 11.6375 10.3625C11.7529 10.4556 11.8455 10.5738 11.9083 10.7081C11.9711 10.8424 12.0025 10.9893 12 11.1375V16.3375C12.0005 16.5269 11.9466 16.7124 11.8447 16.8719C11.7427 17.0315 11.597 17.1584 11.425 17.2375C11.0214 17.4297 10.6768 17.7266 10.427 18.0973C10.1771 18.4679 10.0312 18.8988 10.0045 19.345C9.97774 19.7912 10.0711 20.2364 10.2749 20.6342C10.4787 21.0321 10.7854 21.368 11.1631 21.6071C11.5408 21.8461 11.9757 21.9795 12.4225 21.9934C12.8692 22.0072 13.3116 21.9011 13.7034 21.6859C14.0952 21.4707 14.4221 21.1545 14.6502 20.77C14.8782 20.3856 14.999 19.947 15 19.5V3.5C15 3.23478 15.1054 2.98043 15.2929 2.79289C15.4804 2.60536 15.7348 2.5 16 2.5H21C21.2652 2.5 21.5196 2.60536 21.7071 2.79289C21.8946 2.98043 22 3.23478 22 3.5C22 5.0913 22.6321 6.61742 23.7574 7.74264C24.8826 8.86786 26.4087 9.5 28 9.5C28.2652 9.5 28.5196 9.60536 28.7071 9.79289C28.8946 9.98043 29 10.2348 29 10.5Z" fill="#B2B2B2"/>
</svg>
